# xmcd
#
# Track frame offsets:
#	150
#	15920
#	29752
#	48770
#	65052
#	77945
#	93070
#	108450
#	120032
#	135822
#	153865
#	168985
#	184125
#	200642
#
# Disc length: 2888 seconds
#
# Revision: 1
# Processed by: cddbd v1.5.2PL0 Copyright (c) Steve Scherf et al.
# Submitted via: audiograbber 1.83.01
#
DISCID=a50b460e
DTITLE=Diverse  VA - Die Schlager Krönung II
DYEAR=1997
DGENRE=
TTITLE0=Frank Schröder - Küß mich
TTITLE1=Ingrid Peters - Komm und halt mich fest
TTITLE2=Peter White - Nicht ein Wort davon ist wahr
TTITLE3=Jeannine - Calypsonacht
TTITLE4=Henry Valentino - Komm flieg mit mit
TTITLE5=Jörg Lück - Willenlos
TTITLE6=Nina Puder - In der Tür geirrt
TTITLE7=Erik Silvester - Manana
TTITLE8=Chris White - Siesta auf Balkonia
TTITLE9=Edina Pop - Happy Guitar
TTITLE10=Danny Davis - Herz über Kopf verliebt
TTITLE11=Ulla Norden - Du bist mein schönstes Geheimnis
TTITLE12=Peter Lorenz - Es giebt zu viele Tränen auf der Welt
TTITLE13=Peter Orloff - War das schon alles ?
EXTD=
EXTT0=
EXTT1=
EXTT2=
EXTT3=
EXTT4=
EXTT5=
EXTT6=
EXTT7=
EXTT8=
EXTT9=
EXTT10=
EXTT11=
EXTT12=
EXTT13=
PLAYORDER=
